<svg version="1.2" xmlns="http://www.w3.org/2000/svg" viewBox="0 0 16 16" width="1000" height="1000">
	<style>
		.s0 { fill: none;stroke: #fed32e;stroke-linecap: round;stroke-linejoin: round } 
	</style>
	<path class="s0" d="m5.66 10.95v0.03"/>
	<g id="Layer 1">
		<path class="s0" d="m6 4l2.2 2.2 2.2-2.2"/>
		<path class="s0" d="m5.95 6.03q-0.12 0.03-0.21 0.09-0.1 0.07-0.18 0.15-0.08 0.09-0.13 0.19l-1.34 2.68q-0.02 0.04-0.04 0.09-0.02 0.05-0.03 0.09-0.01 0.05-0.01 0.1-0.01 0.04-0.01 0.09v2.29q0 0.17 0.06 0.32 0.07 0.15 0.18 0.27 0.12 0.12 0.27 0.18 0.15 0.06 0.32 0.06h6.63q0.17 0 0.32-0.06 0.15-0.06 0.27-0.18 0.12-0.12 0.18-0.27 0.06-0.15 0.06-0.32v-2.29q0-0.05 0-0.09-0.01-0.05-0.02-0.1-0.01-0.04-0.03-0.09-0.01-0.05-0.04-0.09l-1.34-2.68q-0.05-0.1-0.13-0.19-0.08-0.08-0.17-0.15-0.1-0.06-0.21-0.09"/>
		<path class="s0" d="m12.27 9.32h-8.25"/>
	</g>
</svg>